<svg id="Слой_1" data-name="Слой 1" xmlns="http://www.w3.org/2000/svg" viewBox="0 0 61 69"><defs><style>.cls-1,.cls-2{fill:#c7b299;stroke:#998675;}.cls-1,.cls-2,.cls-3,.cls-4,.cls-6,.cls-7,.cls-8{stroke-linecap:round;}.cls-1,.cls-11,.cls-13,.cls-2,.cls-3,.cls-4,.cls-6,.cls-7,.cls-8{stroke-miterlimit:10;}.cls-1,.cls-11,.cls-13,.cls-2{stroke-width:2px;}.cls-1,.cls-4{fill-rule:evenodd;}.cls-11,.cls-3,.cls-6,.cls-7{fill:none;}.cls-3{stroke:#42210b;}.cls-4{fill:lime;stroke:#39b54a;}.cls-5,.cls-8{fill:#d9e021;}.cls-6,.cls-8{stroke:#ff0;}.cls-7{stroke:#d9e021;}.cls-13,.cls-9{fill:#c69c6d;}.cls-10{fill:#8c6239;}.cls-11,.cls-13{stroke:#8c6239;}.cls-12{font-size:9.76px;fill:#39b54a;font-family:TrebuchetMS, Trebuchet MS;}</style></defs><title>Грос</title><path class="cls-1" d="M63.6,1.85c2.71-7.56,3.18-15.24.79-19.25-3.21-5.4-10.37-2.11-16,7.33A44.3,44.3,0,0,0,43.54,1.85Z" transform="translate(-6 21)"/><path class="cls-2" d="M54.49-11.26l.33-.15a6.67,6.67,0,0,1,5.6,0l.33.15" transform="translate(-6 21)"/><path class="cls-2" d="M51.36-4l.33-.15a6.67,6.67,0,0,1,5.6,0l.33.15" transform="translate(-6 21)"/><line class="cls-3" x1="12.69" y1="10.32" x2="10.77" y2="12.62"/><path class="cls-4" d="M9.12-5.11c.93-7.25,5.2-2.75,8.61-4,1.47-.53,5.82-2.84,8,4C27.11-1,22,2.65,17.45,2.65S8.58-.86,9.12-5.11Z" transform="translate(-6 21)"/><path class="cls-5" d="M28.37,1.46c3.38.37,6.89-.1,10.3.08v-3c-3.58,0-7.25-.29-10.82,0-1.91.16-1.93,3.17,0,3,3.57-.31,7.24,0,10.82,0,1.94,0,1.92-2.9,0-3-3.41-.18-6.92.29-10.3-.08-1.92-.21-1.9,2.79,0,3Z" transform="translate(-6 21)"/><path class="cls-5" d="M29.95.13c1.28-1.51,3.45-3.28,3.24-5.45a1.51,1.51,0,0,0-2.95-.4,13.28,13.28,0,0,1-.65,1.51C28.73-2.49,31.32-1,32.19-2.69q1.58-3.14,3-6.36c.76-1.75-1.82-3.28-2.59-1.51q-1.4,3.23-3,6.36l2.59,1.51a19.76,19.76,0,0,0,.95-2.22l-2.95-.4c.1,1-1.76,2.61-2.36,3.32-1.24,1.47.87,3.6,2.12,2.12Z" transform="translate(-6 21)"/><path class="cls-5" d="M34.5-9.94a1.5,1.5,0,0,0,0-3,1.5,1.5,0,0,0,0,3Z" transform="translate(-6 21)"/><path class="cls-5" d="M34.56-11.06a1.5,1.5,0,0,0,0-3,1.5,1.5,0,0,0,0,3Z" transform="translate(-6 21)"/><path class="cls-5" d="M33.27-10.5c-.21,1.39.29,2.57.24,3.92a7.31,7.31,0,0,1-1.74,3.51A1.52,1.52,0,0,0,32.83-.51,14.5,14.5,0,0,0,38-.57a1.51,1.51,0,0,0,1-1c.56-2.32-1.18-5.24-2.18-7.23-.69-1.37-2.77-.66-2.8.76L34-3.56a1.5,1.5,0,0,0,3,0l.07-4.52-2.8.76c.4.78.8,1.57,1.13,2.38.24.58.9,1.91.75,2.54l1-1a12.66,12.66,0,0,1-4.39,0L33.89-.95a11.64,11.64,0,0,0,2.32-3.93c.68-1.68-.3-3.17,0-4.83.29-1.89-2.6-2.7-2.89-.8Z" transform="translate(-6 21)"/><line class="cls-6" x1="28.7" y1="6" x2="20" y2="22.5"/><line class="cls-6" x1="28.7" y1="6" x2="34.5" y2="22.5"/><line class="cls-7" x1="20.5" y1="22.5" x2="34.5" y2="22.5"/><ellipse class="cls-8" cx="27.82" cy="17.59" rx="2.2" ry="1.78"/><rect class="cls-9" x="1" y="23.39" width="59" height="44.61" rx="0.95" ry="0.95"/><path class="cls-10" d="M65,3.39V46H8V3.39H65m0-2H8a2,2,0,0,0-2,2V46a2,2,0,0,0,2,2H65a2,2,0,0,0,2-2V3.34a2,2,0,0,0-2-2Z" transform="translate(-6 21)"/><line class="cls-11" y1="22.85" x2="61" y2="22.85"/><line class="cls-9" y1="22.85" x2="61" y2="22.85"/><text class="cls-12" transform="translate(17.09 46.79) scale(1.13 1)">Gross<tspan x="1.25" y="11.72">Food</tspan></text><rect class="cls-13" x="17.21" y="23.85" width="25.03" height="7.28" rx="0.12" ry="0.12"/></svg>